# xmcd
#
# Track frame offsets:
#	150
#	12593
#	24797
#	38859
#	48612
#	61778
#	71625
#	83103
#	94212
#	105833
#
# Disc length: 1573 seconds
#
# Revision: 8
# Processed by: cddbd v1.5.1PL2 Copyright (c) Steve Scherf et al.
# Submitted via: EasyCDDAExtractor 9.0.0.1
#
DISCID=7506230a
DTITLE=Elvis Presley - The Original Elvis Presley Collection 43 - Elvis (The F
DTITLE=ool Album)
DYEAR=1973
DGENRE=
TTITLE0=Fool
TTITLE1=Where Do I Go From Here
TTITLE2=Love Me, Love The Life I Lead
TTITLE3=It's Still Here
TTITLE4=It's Impossible
TTITLE5=(That's What You Get) For Lovin' Me
TTITLE6=Padre
TTITLE7=I'll Take You Home Again Kathleen
TTITLE8=I Will Be True
TTITLE9=Don't Think Twice, It's All Right
EXTD=
EXTT0=
EXTT1=
EXTT2=
EXTT3=
EXTT4=
EXTT5=
EXTT6=
EXTT7=
EXTT8=
EXTT9=
PLAYORDER=
